<mxfile host="app.diagrams.net" modified="2021-05-17T23:04:44.280Z" agent="5.0 (X11; Linux x86_64) AppleWebKit/537.36 (KHTML, like Gecko) Chrome/89.0.4389.114 Safari/537.36" etag="ncA0tOwJPMpXGZ7STIp4" version="14.6.13" type="github" pages="3">
  <diagram id="pLzuvUASEuhN7bm8HHqp" name="Page-1">
    <mxGraphModel dx="1422" dy="775" grid="1" gridSize="10" guides="1" tooltips="1" connect="1" arrows="1" fold="1" page="1" pageScale="1" pageWidth="850" pageHeight="1100" math="0" shadow="0">
      <root>
        <mxCell id="0" />
        <mxCell id="1" parent="0" />
        <mxCell id="02XWJNLIGnLGkCa6bRS4-7" style="edgeStyle=orthogonalEdgeStyle;rounded=0;orthogonalLoop=1;jettySize=auto;html=1;entryX=0.5;entryY=0;entryDx=0;entryDy=0;" parent="1" source="02XWJNLIGnLGkCa6bRS4-3" edge="1">
          <mxGeometry relative="1" as="geometry">
            <mxPoint x="630" y="410" as="targetPoint" />
          </mxGeometry>
        </mxCell>
        <mxCell id="02XWJNLIGnLGkCa6bRS4-3" value="Cadastro de usuário" style="rounded=1;whiteSpace=wrap;html=1;absoluteArcSize=1;arcSize=14;strokeWidth=2;" parent="1" vertex="1">
          <mxGeometry x="580" y="240" width="100" height="100" as="geometry" />
        </mxCell>
        <mxCell id="02XWJNLIGnLGkCa6bRS4-20" style="edgeStyle=orthogonalEdgeStyle;rounded=0;orthogonalLoop=1;jettySize=auto;html=1;" parent="1" source="02XWJNLIGnLGkCa6bRS4-4" target="02XWJNLIGnLGkCa6bRS4-9" edge="1">
          <mxGeometry relative="1" as="geometry" />
        </mxCell>
        <mxCell id="02XWJNLIGnLGkCa6bRS4-4" value="Início" style="strokeWidth=2;html=1;shape=mxgraph.flowchart.start_1;whiteSpace=wrap;" parent="1" vertex="1">
          <mxGeometry x="375" y="120" width="100" height="60" as="geometry" />
        </mxCell>
        <mxCell id="02XWJNLIGnLGkCa6bRS4-10" style="edgeStyle=orthogonalEdgeStyle;rounded=0;orthogonalLoop=1;jettySize=auto;html=1;" parent="1" source="02XWJNLIGnLGkCa6bRS4-9" target="02XWJNLIGnLGkCa6bRS4-3" edge="1">
          <mxGeometry relative="1" as="geometry" />
        </mxCell>
        <mxCell id="02XWJNLIGnLGkCa6bRS4-11" value="Sim" style="edgeLabel;html=1;align=center;verticalAlign=middle;resizable=0;points=[];" parent="02XWJNLIGnLGkCa6bRS4-10" vertex="1" connectable="0">
          <mxGeometry x="-0.1086" relative="1" as="geometry">
            <mxPoint as="offset" />
          </mxGeometry>
        </mxCell>
        <mxCell id="02XWJNLIGnLGkCa6bRS4-16" style="edgeStyle=orthogonalEdgeStyle;rounded=0;orthogonalLoop=1;jettySize=auto;html=1;entryX=1;entryY=0.5;entryDx=0;entryDy=0;" parent="1" source="02XWJNLIGnLGkCa6bRS4-9" target="02XWJNLIGnLGkCa6bRS4-15" edge="1">
          <mxGeometry relative="1" as="geometry" />
        </mxCell>
        <mxCell id="02XWJNLIGnLGkCa6bRS4-17" value="Não" style="edgeLabel;html=1;align=center;verticalAlign=middle;resizable=0;points=[];" parent="02XWJNLIGnLGkCa6bRS4-16" vertex="1" connectable="0">
          <mxGeometry x="0.2063" relative="1" as="geometry">
            <mxPoint as="offset" />
          </mxGeometry>
        </mxCell>
        <mxCell id="02XWJNLIGnLGkCa6bRS4-9" value="Efetuar&amp;nbsp; cadastro?" style="strokeWidth=2;html=1;shape=mxgraph.flowchart.decision;whiteSpace=wrap;" parent="1" vertex="1">
          <mxGeometry x="375" y="240" width="100" height="100" as="geometry" />
        </mxCell>
        <mxCell id="02XWJNLIGnLGkCa6bRS4-30" style="edgeStyle=orthogonalEdgeStyle;rounded=0;orthogonalLoop=1;jettySize=auto;html=1;entryX=0.5;entryY=0;entryDx=0;entryDy=0;" parent="1" source="02XWJNLIGnLGkCa6bRS4-15" target="02XWJNLIGnLGkCa6bRS4-29" edge="1">
          <mxGeometry relative="1" as="geometry" />
        </mxCell>
        <mxCell id="02XWJNLIGnLGkCa6bRS4-15" value="Acesso anonimo" style="rounded=1;whiteSpace=wrap;html=1;absoluteArcSize=1;arcSize=14;strokeWidth=2;" parent="1" vertex="1">
          <mxGeometry x="170" y="240" width="100" height="100" as="geometry" />
        </mxCell>
        <mxCell id="02XWJNLIGnLGkCa6bRS4-23" style="edgeStyle=orthogonalEdgeStyle;rounded=0;orthogonalLoop=1;jettySize=auto;html=1;entryX=0.5;entryY=0;entryDx=0;entryDy=0;" parent="1" source="02XWJNLIGnLGkCa6bRS4-21" target="02XWJNLIGnLGkCa6bRS4-22" edge="1">
          <mxGeometry relative="1" as="geometry" />
        </mxCell>
        <mxCell id="02XWJNLIGnLGkCa6bRS4-21" value="Informações de cadastro" style="shape=parallelogram;html=1;strokeWidth=2;perimeter=parallelogramPerimeter;whiteSpace=wrap;rounded=1;arcSize=12;size=0.23;" parent="1" vertex="1">
          <mxGeometry x="565" y="410" width="130" height="80" as="geometry" />
        </mxCell>
        <mxCell id="02XWJNLIGnLGkCa6bRS4-26" value="" style="edgeStyle=orthogonalEdgeStyle;rounded=0;orthogonalLoop=1;jettySize=auto;html=1;" parent="1" source="02XWJNLIGnLGkCa6bRS4-22" target="02XWJNLIGnLGkCa6bRS4-25" edge="1">
          <mxGeometry relative="1" as="geometry">
            <Array as="points">
              <mxPoint x="630" y="690" />
              <mxPoint x="630" y="690" />
            </Array>
          </mxGeometry>
        </mxCell>
        <mxCell id="02XWJNLIGnLGkCa6bRS4-22" value="Processando" style="shape=process;whiteSpace=wrap;html=1;backgroundOutline=1;" parent="1" vertex="1">
          <mxGeometry x="570" y="560" width="120" height="60" as="geometry" />
        </mxCell>
        <mxCell id="02XWJNLIGnLGkCa6bRS4-28" style="edgeStyle=orthogonalEdgeStyle;rounded=0;orthogonalLoop=1;jettySize=auto;html=1;entryX=1;entryY=0.5;entryDx=0;entryDy=0;entryPerimeter=0;" parent="1" source="02XWJNLIGnLGkCa6bRS4-25" target="02XWJNLIGnLGkCa6bRS4-27" edge="1">
          <mxGeometry relative="1" as="geometry">
            <Array as="points">
              <mxPoint x="630" y="830" />
            </Array>
          </mxGeometry>
        </mxCell>
        <mxCell id="02XWJNLIGnLGkCa6bRS4-25" value="DB Online" style="strokeWidth=2;html=1;shape=mxgraph.flowchart.database;whiteSpace=wrap;" parent="1" vertex="1">
          <mxGeometry x="600" y="690" width="60" height="60" as="geometry" />
        </mxCell>
        <mxCell id="02XWJNLIGnLGkCa6bRS4-38" style="edgeStyle=orthogonalEdgeStyle;rounded=0;orthogonalLoop=1;jettySize=auto;html=1;entryX=0.5;entryY=0;entryDx=0;entryDy=0;entryPerimeter=0;" parent="1" source="02XWJNLIGnLGkCa6bRS4-27" target="02XWJNLIGnLGkCa6bRS4-37" edge="1">
          <mxGeometry relative="1" as="geometry" />
        </mxCell>
        <mxCell id="02XWJNLIGnLGkCa6bRS4-27" value="Status do processo" style="strokeWidth=2;html=1;shape=mxgraph.flowchart.display;whiteSpace=wrap;" parent="1" vertex="1">
          <mxGeometry x="375" y="800" width="100" height="60" as="geometry" />
        </mxCell>
        <mxCell id="02XWJNLIGnLGkCa6bRS4-32" style="edgeStyle=orthogonalEdgeStyle;rounded=0;orthogonalLoop=1;jettySize=auto;html=1;entryX=0.5;entryY=0;entryDx=0;entryDy=0;" parent="1" source="02XWJNLIGnLGkCa6bRS4-29" target="02XWJNLIGnLGkCa6bRS4-31" edge="1">
          <mxGeometry relative="1" as="geometry" />
        </mxCell>
        <mxCell id="02XWJNLIGnLGkCa6bRS4-29" value="Nome do usuário" style="shape=parallelogram;html=1;strokeWidth=2;perimeter=parallelogramPerimeter;whiteSpace=wrap;rounded=1;arcSize=12;size=0.23;" parent="1" vertex="1">
          <mxGeometry x="155" y="400" width="130" height="90" as="geometry" />
        </mxCell>
        <mxCell id="02XWJNLIGnLGkCa6bRS4-34" style="edgeStyle=orthogonalEdgeStyle;rounded=0;orthogonalLoop=1;jettySize=auto;html=1;" parent="1" source="02XWJNLIGnLGkCa6bRS4-31" target="02XWJNLIGnLGkCa6bRS4-33" edge="1">
          <mxGeometry relative="1" as="geometry" />
        </mxCell>
        <mxCell id="02XWJNLIGnLGkCa6bRS4-31" value="Processando" style="shape=process;whiteSpace=wrap;html=1;backgroundOutline=1;" parent="1" vertex="1">
          <mxGeometry x="160" y="560" width="120" height="60" as="geometry" />
        </mxCell>
        <mxCell id="02XWJNLIGnLGkCa6bRS4-35" style="edgeStyle=orthogonalEdgeStyle;rounded=0;orthogonalLoop=1;jettySize=auto;html=1;entryX=0;entryY=0.5;entryDx=0;entryDy=0;entryPerimeter=0;" parent="1" source="02XWJNLIGnLGkCa6bRS4-33" target="02XWJNLIGnLGkCa6bRS4-27" edge="1">
          <mxGeometry relative="1" as="geometry">
            <Array as="points">
              <mxPoint x="220" y="830" />
            </Array>
          </mxGeometry>
        </mxCell>
        <mxCell id="02XWJNLIGnLGkCa6bRS4-33" value="DB Local" style="strokeWidth=2;html=1;shape=mxgraph.flowchart.database;whiteSpace=wrap;" parent="1" vertex="1">
          <mxGeometry x="190" y="690" width="60" height="60" as="geometry" />
        </mxCell>
        <mxCell id="02XWJNLIGnLGkCa6bRS4-37" value="Fim" style="strokeWidth=2;html=1;shape=mxgraph.flowchart.terminator;whiteSpace=wrap;" parent="1" vertex="1">
          <mxGeometry x="375" y="920" width="100" height="60" as="geometry" />
        </mxCell>
      </root>
    </mxGraphModel>
  </diagram>
  <diagram id="oP7xc0i6-rWA8Pr_62fY" name="Page-2">
    <mxGraphModel dx="1422" dy="775" grid="1" gridSize="10" guides="1" tooltips="1" connect="1" arrows="1" fold="1" page="1" pageScale="1" pageWidth="850" pageHeight="1100" math="0" shadow="0">
      <root>
        <mxCell id="mFQIk7pTBWU1XwKGAgLI-0" />
        <mxCell id="mFQIk7pTBWU1XwKGAgLI-1" parent="mFQIk7pTBWU1XwKGAgLI-0" />
        <mxCell id="AaXIl2anyqvb_-mtyPk9-0" style="edgeStyle=orthogonalEdgeStyle;rounded=0;orthogonalLoop=1;jettySize=auto;html=1;" parent="mFQIk7pTBWU1XwKGAgLI-1" source="AaXIl2anyqvb_-mtyPk9-1" target="AaXIl2anyqvb_-mtyPk9-3" edge="1">
          <mxGeometry relative="1" as="geometry" />
        </mxCell>
        <mxCell id="AaXIl2anyqvb_-mtyPk9-1" value="Início" style="strokeWidth=2;html=1;shape=mxgraph.flowchart.start_1;whiteSpace=wrap;" parent="mFQIk7pTBWU1XwKGAgLI-1" vertex="1">
          <mxGeometry x="375" y="90" width="100" height="60" as="geometry" />
        </mxCell>
        <mxCell id="AaXIl2anyqvb_-mtyPk9-2" style="edgeStyle=orthogonalEdgeStyle;rounded=0;orthogonalLoop=1;jettySize=auto;html=1;" parent="mFQIk7pTBWU1XwKGAgLI-1" source="AaXIl2anyqvb_-mtyPk9-3" target="AaXIl2anyqvb_-mtyPk9-5" edge="1">
          <mxGeometry relative="1" as="geometry" />
        </mxCell>
        <mxCell id="AaXIl2anyqvb_-mtyPk9-3" value="Cadastro de feedback" style="rounded=1;whiteSpace=wrap;html=1;absoluteArcSize=1;arcSize=14;strokeWidth=2;" parent="mFQIk7pTBWU1XwKGAgLI-1" vertex="1">
          <mxGeometry x="375" y="210" width="100" height="100" as="geometry" />
        </mxCell>
        <mxCell id="AaXIl2anyqvb_-mtyPk9-4" style="edgeStyle=orthogonalEdgeStyle;rounded=0;orthogonalLoop=1;jettySize=auto;html=1;entryX=0.5;entryY=0;entryDx=0;entryDy=0;" parent="mFQIk7pTBWU1XwKGAgLI-1" source="AaXIl2anyqvb_-mtyPk9-5" target="AaXIl2anyqvb_-mtyPk9-7" edge="1">
          <mxGeometry relative="1" as="geometry" />
        </mxCell>
        <mxCell id="AaXIl2anyqvb_-mtyPk9-5" value="Experiência &lt;br&gt;a ser compartilhada" style="shape=parallelogram;html=1;strokeWidth=2;perimeter=parallelogramPerimeter;whiteSpace=wrap;rounded=1;arcSize=12;size=0.23;" parent="mFQIk7pTBWU1XwKGAgLI-1" vertex="1">
          <mxGeometry x="358" y="370" width="135" height="90" as="geometry" />
        </mxCell>
        <mxCell id="AaXIl2anyqvb_-mtyPk9-6" style="edgeStyle=orthogonalEdgeStyle;rounded=0;orthogonalLoop=1;jettySize=auto;html=1;entryX=0.5;entryY=0;entryDx=0;entryDy=0;entryPerimeter=0;" parent="mFQIk7pTBWU1XwKGAgLI-1" source="AaXIl2anyqvb_-mtyPk9-7" target="AaXIl2anyqvb_-mtyPk9-9" edge="1">
          <mxGeometry relative="1" as="geometry" />
        </mxCell>
        <mxCell id="AaXIl2anyqvb_-mtyPk9-7" value="Processando" style="shape=process;whiteSpace=wrap;html=1;backgroundOutline=1;" parent="mFQIk7pTBWU1XwKGAgLI-1" vertex="1">
          <mxGeometry x="365" y="520" width="120" height="60" as="geometry" />
        </mxCell>
        <mxCell id="AaXIl2anyqvb_-mtyPk9-8" style="edgeStyle=orthogonalEdgeStyle;rounded=0;orthogonalLoop=1;jettySize=auto;html=1;entryX=0.5;entryY=0;entryDx=0;entryDy=0;entryPerimeter=0;" parent="mFQIk7pTBWU1XwKGAgLI-1" source="AaXIl2anyqvb_-mtyPk9-9" target="AaXIl2anyqvb_-mtyPk9-11" edge="1">
          <mxGeometry relative="1" as="geometry" />
        </mxCell>
        <mxCell id="AaXIl2anyqvb_-mtyPk9-9" value="DB Online" style="strokeWidth=2;html=1;shape=mxgraph.flowchart.database;whiteSpace=wrap;" parent="mFQIk7pTBWU1XwKGAgLI-1" vertex="1">
          <mxGeometry x="395" y="640" width="60" height="60" as="geometry" />
        </mxCell>
        <mxCell id="AaXIl2anyqvb_-mtyPk9-10" style="edgeStyle=orthogonalEdgeStyle;rounded=0;orthogonalLoop=1;jettySize=auto;html=1;entryX=0.5;entryY=0;entryDx=0;entryDy=0;entryPerimeter=0;" parent="mFQIk7pTBWU1XwKGAgLI-1" source="AaXIl2anyqvb_-mtyPk9-11" target="AaXIl2anyqvb_-mtyPk9-12" edge="1">
          <mxGeometry relative="1" as="geometry" />
        </mxCell>
        <mxCell id="AaXIl2anyqvb_-mtyPk9-11" value="Status do processo" style="strokeWidth=2;html=1;shape=mxgraph.flowchart.display;whiteSpace=wrap;" parent="mFQIk7pTBWU1XwKGAgLI-1" vertex="1">
          <mxGeometry x="375" y="760" width="100" height="60" as="geometry" />
        </mxCell>
        <mxCell id="AaXIl2anyqvb_-mtyPk9-12" value="Fim" style="strokeWidth=2;html=1;shape=mxgraph.flowchart.terminator;whiteSpace=wrap;" parent="mFQIk7pTBWU1XwKGAgLI-1" vertex="1">
          <mxGeometry x="375" y="880" width="100" height="60" as="geometry" />
        </mxCell>
      </root>
    </mxGraphModel>
  </diagram>
  <diagram id="xpQt219ReQg3SIqvkSCD" name="Page-3">
    <mxGraphModel dx="2844" dy="1550" grid="1" gridSize="10" guides="1" tooltips="1" connect="1" arrows="1" fold="1" page="1" pageScale="1" pageWidth="850" pageHeight="1100" math="0" shadow="0">
      <root>
        <mxCell id="BfFdo3wbihScR9KZqL9i-0" />
        <mxCell id="BfFdo3wbihScR9KZqL9i-1" parent="BfFdo3wbihScR9KZqL9i-0" />
        <mxCell id="BfFdo3wbihScR9KZqL9i-2" value="" style="rounded=0;whiteSpace=wrap;html=1;strokeColor=#000000;fillColor=#FFFFFF;" parent="BfFdo3wbihScR9KZqL9i-1" vertex="1">
          <mxGeometry x="163" y="110" width="507" height="1250" as="geometry" />
        </mxCell>
        <mxCell id="BfFdo3wbihScR9KZqL9i-4" value="" style="rounded=0;whiteSpace=wrap;html=1;fillColor=none;strokeColor=#000000;" parent="BfFdo3wbihScR9KZqL9i-1" vertex="1">
          <mxGeometry x="163" y="110" width="507" height="30" as="geometry" />
        </mxCell>
        <mxCell id="BfFdo3wbihScR9KZqL9i-5" value="Cadastro de conteúdo informativo" style="text;html=1;align=center;verticalAlign=middle;whiteSpace=wrap;rounded=0;fontColor=#000000;" parent="BfFdo3wbihScR9KZqL9i-1" vertex="1">
          <mxGeometry x="307.5" y="117.5" width="208" height="15" as="geometry" />
        </mxCell>
        <mxCell id="_4kLictYvpoLeYzA3fp5-3" value="" style="whiteSpace=wrap;html=1;aspect=fixed;fillColor=none;strokeColor=#000000;" parent="BfFdo3wbihScR9KZqL9i-1" vertex="1">
          <mxGeometry x="161.5" y="170" width="170" height="170" as="geometry" />
        </mxCell>
        <mxCell id="_4kLictYvpoLeYzA3fp5-6" style="edgeStyle=orthogonalEdgeStyle;rounded=0;orthogonalLoop=1;jettySize=auto;html=1;entryX=0.5;entryY=0;entryDx=0;entryDy=0;strokeColor=#000000;" parent="BfFdo3wbihScR9KZqL9i-1" source="_4kLictYvpoLeYzA3fp5-4" target="_4kLictYvpoLeYzA3fp5-5" edge="1">
          <mxGeometry relative="1" as="geometry" />
        </mxCell>
        <mxCell id="_4kLictYvpoLeYzA3fp5-4" value="" style="ellipse;whiteSpace=wrap;html=1;aspect=fixed;strokeColor=#000000;fillColor=#000000;" parent="BfFdo3wbihScR9KZqL9i-1" vertex="1">
          <mxGeometry x="231.5" y="190" width="30" height="30" as="geometry" />
        </mxCell>
        <mxCell id="_4kLictYvpoLeYzA3fp5-9" style="edgeStyle=orthogonalEdgeStyle;rounded=0;orthogonalLoop=1;jettySize=auto;html=1;strokeColor=#000000;" parent="BfFdo3wbihScR9KZqL9i-1" source="_4kLictYvpoLeYzA3fp5-5" edge="1">
          <mxGeometry relative="1" as="geometry">
            <mxPoint x="246.5" y="340" as="targetPoint" />
          </mxGeometry>
        </mxCell>
        <mxCell id="_4kLictYvpoLeYzA3fp5-5" value="&lt;font color=&quot;#000000&quot;&gt;Acessa o sistema&lt;/font&gt;" style="rounded=1;whiteSpace=wrap;html=1;fillColor=none;strokeColor=#000000;" parent="BfFdo3wbihScR9KZqL9i-1" vertex="1">
          <mxGeometry x="186.5" y="270" width="120" height="30" as="geometry" />
        </mxCell>
        <mxCell id="_4kLictYvpoLeYzA3fp5-11" value="" style="whiteSpace=wrap;html=1;aspect=fixed;fillColor=none;strokeColor=#000000;" parent="BfFdo3wbihScR9KZqL9i-1" vertex="1">
          <mxGeometry x="161.5" y="340" width="170" height="170" as="geometry" />
        </mxCell>
        <mxCell id="_4kLictYvpoLeYzA3fp5-12" value="&lt;font color=&quot;#000000&quot;&gt;Informa o novo conteúdo&lt;/font&gt;" style="rounded=1;whiteSpace=wrap;html=1;fillColor=none;strokeColor=#000000;" parent="BfFdo3wbihScR9KZqL9i-1" vertex="1">
          <mxGeometry x="186.5" y="410" width="120" height="30" as="geometry" />
        </mxCell>
        <mxCell id="_4kLictYvpoLeYzA3fp5-13" value="" style="endArrow=classic;html=1;strokeColor=#000000;exitX=0.5;exitY=0;exitDx=0;exitDy=0;" parent="BfFdo3wbihScR9KZqL9i-1" source="_4kLictYvpoLeYzA3fp5-11" edge="1">
          <mxGeometry width="50" height="50" relative="1" as="geometry">
            <mxPoint x="98.5" y="420" as="sourcePoint" />
            <mxPoint x="246.5" y="410" as="targetPoint" />
          </mxGeometry>
        </mxCell>
        <mxCell id="_4kLictYvpoLeYzA3fp5-15" value="" style="endArrow=classic;html=1;strokeColor=#000000;entryX=0.515;entryY=0.999;entryDx=0;entryDy=0;entryPerimeter=0;exitX=0.518;exitY=1.023;exitDx=0;exitDy=0;exitPerimeter=0;" parent="BfFdo3wbihScR9KZqL9i-1" source="_4kLictYvpoLeYzA3fp5-12" target="_4kLictYvpoLeYzA3fp5-11" edge="1">
          <mxGeometry width="50" height="50" relative="1" as="geometry">
            <mxPoint x="228.5" y="530" as="sourcePoint" />
            <mxPoint x="278.5" y="480" as="targetPoint" />
          </mxGeometry>
        </mxCell>
        <mxCell id="_4kLictYvpoLeYzA3fp5-17" value="&lt;font color=&quot;#000000&quot;&gt;Administrador/Moderador&lt;/font&gt;" style="rounded=0;whiteSpace=wrap;html=1;fillColor=none;strokeColor=#000000;" parent="BfFdo3wbihScR9KZqL9i-1" vertex="1">
          <mxGeometry x="163" y="140" width="167" height="30" as="geometry" />
        </mxCell>
        <mxCell id="_4kLictYvpoLeYzA3fp5-18" value="&lt;font color=&quot;#000000&quot;&gt;Sistema&lt;/font&gt;" style="rounded=0;whiteSpace=wrap;html=1;fillColor=none;strokeColor=#000000;" parent="BfFdo3wbihScR9KZqL9i-1" vertex="1">
          <mxGeometry x="330" y="140" width="167" height="30" as="geometry" />
        </mxCell>
        <mxCell id="_4kLictYvpoLeYzA3fp5-19" value="&lt;font color=&quot;#000000&quot;&gt;Banco de dados&lt;/font&gt;" style="rounded=0;whiteSpace=wrap;html=1;fillColor=none;strokeColor=#000000;" parent="BfFdo3wbihScR9KZqL9i-1" vertex="1">
          <mxGeometry x="497" y="140" width="173" height="30" as="geometry" />
        </mxCell>
        <mxCell id="2vJZh52ES9hb5ZFV7OxO-0" value="" style="whiteSpace=wrap;html=1;aspect=fixed;fillColor=none;strokeColor=#000000;" vertex="1" parent="BfFdo3wbihScR9KZqL9i-1">
          <mxGeometry x="331.5" y="510" width="170" height="170" as="geometry" />
        </mxCell>
        <mxCell id="2vJZh52ES9hb5ZFV7OxO-1" value="&lt;font color=&quot;#000000&quot;&gt;Validação de dados&lt;/font&gt;" style="rounded=1;whiteSpace=wrap;html=1;fillColor=none;strokeColor=#000000;" vertex="1" parent="BfFdo3wbihScR9KZqL9i-1">
          <mxGeometry x="356.5" y="580" width="120" height="30" as="geometry" />
        </mxCell>
        <mxCell id="2vJZh52ES9hb5ZFV7OxO-2" value="" style="endArrow=classic;html=1;strokeColor=#000000;exitX=0.5;exitY=0;exitDx=0;exitDy=0;" edge="1" parent="BfFdo3wbihScR9KZqL9i-1" source="2vJZh52ES9hb5ZFV7OxO-0">
          <mxGeometry width="50" height="50" relative="1" as="geometry">
            <mxPoint x="268.5" y="590" as="sourcePoint" />
            <mxPoint x="416.5" y="580" as="targetPoint" />
          </mxGeometry>
        </mxCell>
        <mxCell id="2vJZh52ES9hb5ZFV7OxO-3" value="" style="endArrow=classic;html=1;strokeColor=#000000;entryX=0.515;entryY=0.999;entryDx=0;entryDy=0;entryPerimeter=0;exitX=0.518;exitY=1.023;exitDx=0;exitDy=0;exitPerimeter=0;" edge="1" parent="BfFdo3wbihScR9KZqL9i-1" source="2vJZh52ES9hb5ZFV7OxO-1" target="2vJZh52ES9hb5ZFV7OxO-0">
          <mxGeometry width="50" height="50" relative="1" as="geometry">
            <mxPoint x="398.5" y="700" as="sourcePoint" />
            <mxPoint x="448.5" y="650" as="targetPoint" />
          </mxGeometry>
        </mxCell>
        <mxCell id="2vJZh52ES9hb5ZFV7OxO-4" value="" style="whiteSpace=wrap;html=1;aspect=fixed;fillColor=none;strokeColor=#000000;" vertex="1" parent="BfFdo3wbihScR9KZqL9i-1">
          <mxGeometry x="160" y="1190" width="170" height="170" as="geometry" />
        </mxCell>
        <mxCell id="2vJZh52ES9hb5ZFV7OxO-6" value="" style="endArrow=classic;html=1;strokeColor=#000000;exitX=0.5;exitY=0;exitDx=0;exitDy=0;" edge="1" parent="BfFdo3wbihScR9KZqL9i-1" source="2vJZh52ES9hb5ZFV7OxO-4">
          <mxGeometry width="50" height="50" relative="1" as="geometry">
            <mxPoint x="97" y="1270" as="sourcePoint" />
            <mxPoint x="245" y="1260" as="targetPoint" />
          </mxGeometry>
        </mxCell>
        <mxCell id="2vJZh52ES9hb5ZFV7OxO-8" value="" style="whiteSpace=wrap;html=1;aspect=fixed;fillColor=none;strokeColor=#000000;" vertex="1" parent="BfFdo3wbihScR9KZqL9i-1">
          <mxGeometry x="501.5" y="680" width="170" height="170" as="geometry" />
        </mxCell>
        <mxCell id="2vJZh52ES9hb5ZFV7OxO-9" value="&lt;font color=&quot;#000000&quot;&gt;Amazena dados&lt;/font&gt;" style="rounded=1;whiteSpace=wrap;html=1;fillColor=none;strokeColor=#000000;" vertex="1" parent="BfFdo3wbihScR9KZqL9i-1">
          <mxGeometry x="526.5" y="750" width="120" height="30" as="geometry" />
        </mxCell>
        <mxCell id="2vJZh52ES9hb5ZFV7OxO-10" value="" style="endArrow=classic;html=1;strokeColor=#000000;exitX=0.5;exitY=0;exitDx=0;exitDy=0;" edge="1" parent="BfFdo3wbihScR9KZqL9i-1" source="2vJZh52ES9hb5ZFV7OxO-8">
          <mxGeometry width="50" height="50" relative="1" as="geometry">
            <mxPoint x="438.5" y="760" as="sourcePoint" />
            <mxPoint x="586.5" y="750" as="targetPoint" />
          </mxGeometry>
        </mxCell>
        <mxCell id="2vJZh52ES9hb5ZFV7OxO-11" value="" style="endArrow=classic;html=1;strokeColor=#000000;entryX=0.515;entryY=0.999;entryDx=0;entryDy=0;entryPerimeter=0;exitX=0.518;exitY=1.023;exitDx=0;exitDy=0;exitPerimeter=0;" edge="1" parent="BfFdo3wbihScR9KZqL9i-1" source="2vJZh52ES9hb5ZFV7OxO-9" target="2vJZh52ES9hb5ZFV7OxO-8">
          <mxGeometry width="50" height="50" relative="1" as="geometry">
            <mxPoint x="568.5" y="870" as="sourcePoint" />
            <mxPoint x="618.5" y="820" as="targetPoint" />
          </mxGeometry>
        </mxCell>
        <mxCell id="2vJZh52ES9hb5ZFV7OxO-12" value="" style="whiteSpace=wrap;html=1;aspect=fixed;fillColor=none;strokeColor=#000000;" vertex="1" parent="BfFdo3wbihScR9KZqL9i-1">
          <mxGeometry x="331.5" y="850" width="170" height="170" as="geometry" />
        </mxCell>
        <mxCell id="2vJZh52ES9hb5ZFV7OxO-13" value="&lt;font color=&quot;#000000&quot;&gt;Lista o conteúdo&lt;/font&gt;" style="rounded=1;whiteSpace=wrap;html=1;fillColor=none;strokeColor=#000000;" vertex="1" parent="BfFdo3wbihScR9KZqL9i-1">
          <mxGeometry x="356.5" y="920" width="120" height="30" as="geometry" />
        </mxCell>
        <mxCell id="2vJZh52ES9hb5ZFV7OxO-14" value="" style="endArrow=classic;html=1;strokeColor=#000000;exitX=0.5;exitY=0;exitDx=0;exitDy=0;" edge="1" parent="BfFdo3wbihScR9KZqL9i-1" source="2vJZh52ES9hb5ZFV7OxO-12">
          <mxGeometry width="50" height="50" relative="1" as="geometry">
            <mxPoint x="268.5" y="930" as="sourcePoint" />
            <mxPoint x="416.5" y="920" as="targetPoint" />
          </mxGeometry>
        </mxCell>
        <mxCell id="2vJZh52ES9hb5ZFV7OxO-15" value="" style="endArrow=classic;html=1;strokeColor=#000000;entryX=0.515;entryY=0.999;entryDx=0;entryDy=0;entryPerimeter=0;exitX=0.518;exitY=1.023;exitDx=0;exitDy=0;exitPerimeter=0;" edge="1" parent="BfFdo3wbihScR9KZqL9i-1" source="2vJZh52ES9hb5ZFV7OxO-13" target="2vJZh52ES9hb5ZFV7OxO-12">
          <mxGeometry width="50" height="50" relative="1" as="geometry">
            <mxPoint x="398.5" y="1040" as="sourcePoint" />
            <mxPoint x="448.5" y="990" as="targetPoint" />
          </mxGeometry>
        </mxCell>
        <mxCell id="2vJZh52ES9hb5ZFV7OxO-18" value="" style="whiteSpace=wrap;html=1;aspect=fixed;fillColor=none;strokeColor=#000000;" vertex="1" parent="BfFdo3wbihScR9KZqL9i-1">
          <mxGeometry x="160" y="1020" width="170" height="170" as="geometry" />
        </mxCell>
        <mxCell id="2vJZh52ES9hb5ZFV7OxO-19" value="&lt;font color=&quot;#000000&quot;&gt;Visualiza conteúdo cadastrado&lt;/font&gt;" style="rounded=1;whiteSpace=wrap;html=1;fillColor=none;strokeColor=#000000;" vertex="1" parent="BfFdo3wbihScR9KZqL9i-1">
          <mxGeometry x="185" y="1090" width="120" height="30" as="geometry" />
        </mxCell>
        <mxCell id="2vJZh52ES9hb5ZFV7OxO-20" value="" style="endArrow=classic;html=1;strokeColor=#000000;exitX=0.5;exitY=0;exitDx=0;exitDy=0;" edge="1" parent="BfFdo3wbihScR9KZqL9i-1" source="2vJZh52ES9hb5ZFV7OxO-18">
          <mxGeometry width="50" height="50" relative="1" as="geometry">
            <mxPoint x="97" y="1100" as="sourcePoint" />
            <mxPoint x="245" y="1090" as="targetPoint" />
          </mxGeometry>
        </mxCell>
        <mxCell id="2vJZh52ES9hb5ZFV7OxO-21" value="" style="endArrow=classic;html=1;strokeColor=#000000;entryX=0.515;entryY=0.999;entryDx=0;entryDy=0;entryPerimeter=0;exitX=0.518;exitY=1.023;exitDx=0;exitDy=0;exitPerimeter=0;" edge="1" parent="BfFdo3wbihScR9KZqL9i-1" source="2vJZh52ES9hb5ZFV7OxO-19" target="2vJZh52ES9hb5ZFV7OxO-18">
          <mxGeometry width="50" height="50" relative="1" as="geometry">
            <mxPoint x="227" y="1210" as="sourcePoint" />
            <mxPoint x="277" y="1160" as="targetPoint" />
          </mxGeometry>
        </mxCell>
        <mxCell id="2vJZh52ES9hb5ZFV7OxO-26" value="" style="ellipse;whiteSpace=wrap;html=1;aspect=fixed;strokeColor=#000000;fillColor=#000000;" vertex="1" parent="BfFdo3wbihScR9KZqL9i-1">
          <mxGeometry x="230" y="1260" width="30" height="30" as="geometry" />
        </mxCell>
        <mxCell id="2vJZh52ES9hb5ZFV7OxO-27" value="" style="endArrow=none;html=1;entryX=1;entryY=1;entryDx=0;entryDy=0;exitX=1;exitY=0;exitDx=0;exitDy=0;strokeColor=#000000;" edge="1" parent="BfFdo3wbihScR9KZqL9i-1" source="2vJZh52ES9hb5ZFV7OxO-0" target="_4kLictYvpoLeYzA3fp5-18">
          <mxGeometry width="50" height="50" relative="1" as="geometry">
            <mxPoint x="40" y="590" as="sourcePoint" />
            <mxPoint x="90" y="540" as="targetPoint" />
          </mxGeometry>
        </mxCell>
        <mxCell id="2vJZh52ES9hb5ZFV7OxO-29" value="" style="endArrow=none;html=1;entryX=1;entryY=1;entryDx=0;entryDy=0;exitX=1;exitY=0;exitDx=0;exitDy=0;strokeColor=#000000;" edge="1" parent="BfFdo3wbihScR9KZqL9i-1">
          <mxGeometry width="50" height="50" relative="1" as="geometry">
            <mxPoint x="784.5" y="510" as="sourcePoint" />
            <mxPoint x="780.0000000000002" y="170" as="targetPoint" />
          </mxGeometry>
        </mxCell>
        <mxCell id="2vJZh52ES9hb5ZFV7OxO-30" value="" style="endArrow=none;html=1;entryX=1;entryY=1;entryDx=0;entryDy=0;exitX=0;exitY=0;exitDx=0;exitDy=0;strokeColor=#000000;" edge="1" parent="BfFdo3wbihScR9KZqL9i-1" source="2vJZh52ES9hb5ZFV7OxO-12">
          <mxGeometry width="50" height="50" relative="1" as="geometry">
            <mxPoint x="336" y="1020" as="sourcePoint" />
            <mxPoint x="331.4999999999998" y="680" as="targetPoint" />
          </mxGeometry>
        </mxCell>
        <mxCell id="2vJZh52ES9hb5ZFV7OxO-31" value="" style="endArrow=none;html=1;entryX=1;entryY=1;entryDx=0;entryDy=0;exitX=0.668;exitY=1.001;exitDx=0;exitDy=0;strokeColor=#000000;exitPerimeter=0;" edge="1" parent="BfFdo3wbihScR9KZqL9i-1" source="BfFdo3wbihScR9KZqL9i-2">
          <mxGeometry width="50" height="50" relative="1" as="geometry">
            <mxPoint x="501.5" y="1180" as="sourcePoint" />
            <mxPoint x="501.4999999999998" y="1010" as="targetPoint" />
          </mxGeometry>
        </mxCell>
      </root>
    </mxGraphModel>
  </diagram>
</mxfile>
